<mxfile host="app.diagrams.net" agent="Mozilla/5.0 (Windows NT 10.0; Win64; x64) AppleWebKit/537.36 (KHTML, like Gecko) Chrome/129.0.0.0 Safari/537.36" version="24.7.17">
  <diagram name="Страница — 1" id="g_OEAIIo462cJNvMkS3_">
    <mxGraphModel dx="1877" dy="522" grid="1" gridSize="10" guides="1" tooltips="1" connect="1" arrows="1" fold="1" page="1" pageScale="1" pageWidth="827" pageHeight="1169" math="0" shadow="0">
      <root>
        <mxCell id="0" />
        <mxCell id="1" parent="0" />
        <mxCell id="eIdsMXbX5jhQC4f8HjRV-19" value="" style="edgeStyle=orthogonalEdgeStyle;rounded=0;orthogonalLoop=1;jettySize=auto;html=1;entryX=0.5;entryY=0;entryDx=0;entryDy=0;entryPerimeter=0;" parent="1" source="eIdsMXbX5jhQC4f8HjRV-8" target="rciXjBsLJWC781kkyAgm-1" edge="1">
          <mxGeometry relative="1" as="geometry">
            <mxPoint x="141.5" y="400" as="targetPoint" />
          </mxGeometry>
        </mxCell>
        <mxCell id="eIdsMXbX5jhQC4f8HjRV-8" value="VALUE_SUM= округленный V всех товаров" style="rounded=0;whiteSpace=wrap;html=1;" parent="1" vertex="1">
          <mxGeometry x="-29.870000000000005" y="310" width="342.75" height="60" as="geometry" />
        </mxCell>
        <mxCell id="eIdsMXbX5jhQC4f8HjRV-18" value="" style="edgeStyle=orthogonalEdgeStyle;rounded=0;orthogonalLoop=1;jettySize=auto;html=1;" parent="1" source="eIdsMXbX5jhQC4f8HjRV-15" target="eIdsMXbX5jhQC4f8HjRV-8" edge="1">
          <mxGeometry relative="1" as="geometry" />
        </mxCell>
        <mxCell id="eIdsMXbX5jhQC4f8HjRV-15" value="&lt;div&gt;DEFAULT_BOX_V = 37*21*7&lt;/div&gt;&lt;div&gt;ITEMS_N -?&lt;/div&gt;&lt;div&gt;ITEM_VALUE - ?&lt;/div&gt;&lt;div&gt;ITEM_WEIGHT - ?&lt;/div&gt;&lt;div&gt;&lt;br&gt;&lt;/div&gt;&lt;div&gt;&lt;br&gt;&lt;/div&gt;" style="rounded=0;whiteSpace=wrap;html=1;" parent="1" vertex="1">
          <mxGeometry x="41.5" y="150" width="200" height="120" as="geometry" />
        </mxCell>
        <mxCell id="eIdsMXbX5jhQC4f8HjRV-17" value="" style="edgeStyle=orthogonalEdgeStyle;rounded=0;orthogonalLoop=1;jettySize=auto;html=1;" parent="1" source="eIdsMXbX5jhQC4f8HjRV-16" target="eIdsMXbX5jhQC4f8HjRV-15" edge="1">
          <mxGeometry relative="1" as="geometry" />
        </mxCell>
        <mxCell id="eIdsMXbX5jhQC4f8HjRV-16" value="Start" style="ellipse;whiteSpace=wrap;html=1;" parent="1" vertex="1">
          <mxGeometry x="81.5" y="30" width="120" height="80" as="geometry" />
        </mxCell>
        <mxCell id="rciXjBsLJWC781kkyAgm-1" value="VALUE_COEFFNT = MATH.CEIL(VALUE_SUM / DEFAULT_BOX_V)" style="rounded=0;whiteSpace=wrap;html=1;" vertex="1" parent="1">
          <mxGeometry x="-47.370000000000005" y="440" width="377.37" height="60" as="geometry" />
        </mxCell>
        <mxCell id="rciXjBsLJWC781kkyAgm-2" value="ITEMS_N = MATH.CEIL (VALUE_COEFFNT / 10)" style="rounded=0;whiteSpace=wrap;html=1;" vertex="1" parent="1">
          <mxGeometry x="-42.370000000000005" y="560" width="367.37" height="60" as="geometry" />
        </mxCell>
        <mxCell id="rciXjBsLJWC781kkyAgm-3" value="" style="endArrow=classic;html=1;rounded=0;exitX=0.5;exitY=1;exitDx=0;exitDy=0;" edge="1" parent="1" source="rciXjBsLJWC781kkyAgm-1" target="rciXjBsLJWC781kkyAgm-2">
          <mxGeometry width="50" height="50" relative="1" as="geometry">
            <mxPoint x="390" y="410" as="sourcePoint" />
            <mxPoint x="440" y="360" as="targetPoint" />
          </mxGeometry>
        </mxCell>
        <mxCell id="rciXjBsLJWC781kkyAgm-4" value="ITEM_VALUE = MATH.CEIL(VALUE_COEEFNT / ITEMS_N)&amp;nbsp;" style="rounded=0;whiteSpace=wrap;html=1;" vertex="1" parent="1">
          <mxGeometry x="-93.68" y="680" width="470" height="60" as="geometry" />
        </mxCell>
        <mxCell id="rciXjBsLJWC781kkyAgm-5" value="" style="endArrow=classic;html=1;rounded=0;exitX=0.5;exitY=1;exitDx=0;exitDy=0;entryX=0.5;entryY=0;entryDx=0;entryDy=0;" edge="1" parent="1" source="rciXjBsLJWC781kkyAgm-2" target="rciXjBsLJWC781kkyAgm-4">
          <mxGeometry width="50" height="50" relative="1" as="geometry">
            <mxPoint x="151" y="510" as="sourcePoint" />
            <mxPoint x="151" y="570" as="targetPoint" />
          </mxGeometry>
        </mxCell>
        <mxCell id="rciXjBsLJWC781kkyAgm-6" value="ITEM_WEIGHT = MATH.CEIL(WEIGHT_SUM : ITEM_N) + 1&amp;nbsp;" style="rounded=0;whiteSpace=wrap;html=1;" vertex="1" parent="1">
          <mxGeometry x="-95.52000000000001" y="810" width="473.68" height="60" as="geometry" />
        </mxCell>
        <mxCell id="rciXjBsLJWC781kkyAgm-7" value="" style="endArrow=classic;html=1;rounded=0;exitX=0.5;exitY=1;exitDx=0;exitDy=0;entryX=0.5;entryY=0;entryDx=0;entryDy=0;" edge="1" parent="1" source="rciXjBsLJWC781kkyAgm-4" target="rciXjBsLJWC781kkyAgm-6">
          <mxGeometry width="50" height="50" relative="1" as="geometry">
            <mxPoint x="151" y="630" as="sourcePoint" />
            <mxPoint x="151" y="690" as="targetPoint" />
          </mxGeometry>
        </mxCell>
        <mxCell id="rciXjBsLJWC781kkyAgm-8" value="END" style="ellipse;whiteSpace=wrap;html=1;" vertex="1" parent="1">
          <mxGeometry x="81.50999999999999" y="940" width="120" height="80" as="geometry" />
        </mxCell>
        <mxCell id="rciXjBsLJWC781kkyAgm-9" value="" style="endArrow=classic;html=1;rounded=0;exitX=0.5;exitY=1;exitDx=0;exitDy=0;entryX=0.5;entryY=0;entryDx=0;entryDy=0;" edge="1" parent="1" source="rciXjBsLJWC781kkyAgm-6" target="rciXjBsLJWC781kkyAgm-8">
          <mxGeometry width="50" height="50" relative="1" as="geometry">
            <mxPoint x="151" y="750" as="sourcePoint" />
            <mxPoint x="151" y="820" as="targetPoint" />
          </mxGeometry>
        </mxCell>
      </root>
    </mxGraphModel>
  </diagram>
</mxfile>
